<svg width="20" height="23" viewBox="0 0 20 23" fill="none" xmlns="http://www.w3.org/2000/svg">
<g clip-path="url(#clip0_36_2)">
<path d="M9.925 0L0 5.653V17.194L7.671 21.664L7.634 19.786L1.54 16.218V7.644L9.136 11.935V22.03L9.937 22.481L10.764 22.031V11.935L18.348 7.643V16.217L12.29 19.71V21.588L20 17.279V5.653L9.925 0ZM9.925 10.583L2.516 6.217L9.925 1.859L17.512 6.217L9.925 10.583ZM4.213 14.818L5.697 13.973L5.571 13.752L4.088 14.597L4.213 14.817V14.818ZM6.811 13.331L8.295 12.486L8.169 12.266L6.685 13.111L6.811 13.331ZM10.035 9.367V7.667H9.781V9.367H10.035ZM10.035 6.404V4.694H9.781V6.404H10.035ZM10.035 3.556V1.847H9.781V3.556H10.035ZM13.245 13.12L11.77 12.266L11.643 12.486L13.117 13.34L13.244 13.12H13.245ZM15.815 14.607L14.33 13.752L14.204 13.972L15.687 14.827L15.814 14.607H15.815ZM1.59 16.317L3.064 15.471L2.937 15.251L1.464 16.096L1.59 16.317ZM18.426 16.093L16.953 15.238L16.825 15.458L18.299 16.313L18.426 16.093Z" fill="#FFE395"/>
</g>
<defs>
<clipPath id="clip0_36_2">
<rect width="20" height="23" fill="white"/>
</clipPath>
</defs>
</svg>
