<svg width="52" height="52" viewBox="0 0 52 52" fill="none" xmlns="http://www.w3.org/2000/svg">
<path d="M50.782 39.5929V37.1729C50.782 36.7229 50.025 36.2929 48.666 35.9069L48.699 32.8929C48.699 28.2519 47.259 23.7229 44.573 19.9179C41.8775 16.1063 38.078 13.213 33.687 11.6279L33.59 11.0239C33.5397 10.7003 33.3981 10.3979 33.182 10.1519C32.9648 9.90498 32.6823 9.72439 32.367 9.6309C28.1461 8.40363 23.6629 8.40363 19.442 9.6309C19.125 9.7239 18.842 9.9039 18.624 10.1509C18.407 10.3969 18.264 10.6989 18.214 11.0229L18.121 11.5859C13.703 13.1561 9.87564 16.0484 7.15899 19.8699C4.45557 23.6741 3.00213 28.2249 2.99999 32.8919V35.9189C1.65999 36.3039 0.912988 36.7289 0.912988 37.1749V39.5959C0.891335 39.738 0.922271 39.883 0.999988 40.0039C1.6684 39.5098 2.4344 39.1638 3.24699 38.9889C5.31899 38.4889 7.42599 38.1389 9.54999 37.9429C10.1446 37.8764 10.7465 37.9362 11.3163 38.1183C11.8862 38.3005 12.4112 38.6009 12.857 38.9999C14.5037 40.4896 16.6454 41.314 18.866 41.3129H32.83C35.0505 41.3142 37.192 40.4894 38.838 38.9989C39.283 38.5978 39.8077 38.2952 40.3778 38.111C40.9478 37.9267 41.5504 37.865 42.146 37.9299C44.269 38.1249 46.376 38.4729 48.448 38.9719C49.218 39.1179 49.946 39.4339 50.578 39.8959C50.613 39.9309 50.656 39.9619 50.686 39.9959C50.7648 39.8772 50.7989 39.7344 50.782 39.5929Z" fill="#FFF100"/>
<path d="M12.89 34.4981C12.8712 33.9406 12.8612 33.3829 12.86 32.8251C12.867 24.4091 14.852 16.8611 18.122 11.5901C13.7043 13.1597 9.87695 16.0514 7.16 19.8721C4.45662 23.6756 3.00285 28.2257 3 32.8921V35.9191C6.24769 35.1516 9.55757 34.6764 12.89 34.4991V34.4981Z" fill="url(#paint0_linear_103_20)"/>
<path d="M48.6969 32.8921C48.7014 27.6302 46.8554 22.5343 43.4819 18.4961C44.9458 23.129 45.6753 27.9625 45.6439 32.8211C45.6439 33.6411 45.6219 34.4511 45.5839 35.2561C46.6197 35.4154 47.646 35.6317 48.6579 35.9041L48.6969 32.8921Z" fill="url(#paint1_linear_103_20)"/>
<path d="M48.4478 38.98C46.3748 38.48 44.2678 38.13 42.1448 37.934C41.5497 37.8683 40.9474 37.929 40.3773 38.1122C39.8072 38.2954 39.2823 38.5969 38.8368 38.997C37.1905 40.4873 35.0485 41.3118 32.8278 41.31H18.8698C16.6504 41.3108 14.5099 40.4868 12.8638 38.998C12.4191 38.5964 11.8945 38.2933 11.3244 38.1087C10.7543 37.9242 10.1516 37.8622 9.55584 37.927C7.43184 38.123 5.32584 38.472 3.25284 38.972C2.44134 39.1493 1.67614 39.4951 1.00684 39.987C2.06684 41.594 12.7888 43.281 25.8528 43.281C38.9178 43.281 49.6348 41.588 50.6968 39.988C50.6598 39.955 50.6188 39.924 50.5878 39.889C49.948 39.4359 49.2181 39.1259 48.4478 38.98Z" fill="url(#paint2_radial_103_20)"/>
<path d="M25.846 15.8181L20.5 24.8411L25.846 28.1291V15.8181Z" fill="#0A0A0A"/>
<path d="M25.8481 15.822V28.127L31.1931 24.843L25.8481 15.822ZM25.8481 29.915V34.205C25.9481 34.063 31.1931 26.625 31.1931 26.622L25.8481 29.915Z" fill="#4B4D4D"/>
<path d="M25.848 29.9159L20.502 26.6279L25.848 34.2079V29.9139V29.9159Z" fill="#0A0A0A"/>
<defs>
<linearGradient id="paint0_linear_103_20" x1="10.561" y1="35.9191" x2="10.561" y2="11.5901" gradientUnits="userSpaceOnUse">
<stop stop-color="#EDCF00"/>
<stop offset="0.33" stop-color="#F0D500"/>
<stop offset="0.77" stop-color="#F9E500"/>
<stop offset="1" stop-color="#FFF100"/>
</linearGradient>
<linearGradient id="paint1_linear_103_20" x1="46.0889" y1="36.0961" x2="46.0889" y2="18.4961" gradientUnits="userSpaceOnUse">
<stop stop-color="#EDCF00"/>
<stop offset="0.59" stop-color="#F7E100"/>
<stop offset="1" stop-color="#FFF100"/>
</linearGradient>
<radialGradient id="paint2_radial_103_20" cx="0" cy="0" r="1" gradientUnits="userSpaceOnUse" gradientTransform="translate(3.70084 52.539) scale(18.5398 18.4136)">
<stop stop-color="#FFF100"/>
<stop offset="0.23" stop-color="#F9E500"/>
<stop offset="0.67" stop-color="#F0D500"/>
<stop offset="1" stop-color="#EDCF00"/>
</radialGradient>
</defs>
</svg>
