<svg width="38" height="38" viewBox="0 0 38 38" fill="none" xmlns="http://www.w3.org/2000/svg">
<g clip-path="url(#clip0_104_20)">
<path d="M29 12.1999C28.3 11.7999 27.4 11.7999 26.6 12.1999L21 15.4999L17.2 17.5999L11.7 20.8999C11 21.2999 10.1 21.2999 9.3 20.8999L5 18.2999C4.3 17.8999 3.8 17.0999 3.8 16.1999V11.1999C3.8 10.3999 4.2 9.5999 5 9.0999L9.3 6.5999C10 6.1999 10.9 6.1999 11.7 6.5999L16 9.1999C16.7 9.5999 17.2 10.3999 17.2 11.2999V14.5999L21 12.3999V8.9999C21 8.1999 20.6 7.3999 19.8 6.8999L11.8 2.1999C11.1 1.7999 10.2 1.7999 9.4 2.1999L1.2 6.9999C0.4 7.3999 0 8.1999 0 8.9999V18.3999C0 19.1999 0.4 19.9999 1.2 20.4999L9.3 25.1999C10 25.5999 10.9 25.5999 11.7 25.1999L17.2 21.9999L21 19.7999L26.5 16.5999C27.2 16.1999 28.1 16.1999 28.9 16.5999L33.2 19.0999C33.9 19.4999 34.4 20.2999 34.4 21.1999V26.1999C34.4 26.9999 34 27.7999 33.2 28.2999L29 30.7999C28.3 31.1999 27.4 31.1999 26.6 30.7999L22.3 28.2999C21.6 27.8999 21.1 27.0999 21.1 26.1999V22.9999L17.3 25.1999V28.4999C17.3 29.2999 17.7 30.0999 18.5 30.5999L26.6 35.2999C27.3 35.6999 28.2 35.6999 29 35.2999L37.1 30.5999C37.8 30.1999 38.3 29.3999 38.3 28.4999V18.9999C38.3 18.1999 37.9 17.3999 37.1 16.8999L29 12.1999Z" fill="#8247E5"/>
</g>
<defs>
<clipPath id="clip0_104_20">
<rect width="38" height="38" fill="white"/>
</clipPath>
</defs>
</svg>
