<svg width="53" height="41" viewBox="0 0 53 41" fill="none" xmlns="http://www.w3.org/2000/svg">
<path d="M50.782 34.189V31.768C50.782 31.318 50.025 30.889 48.666 30.502L48.699 27.489C48.699 22.847 47.259 18.318 44.573 14.514C41.8775 10.7024 38.078 7.80904 33.687 6.22398L33.59 5.61998C33.5397 5.29644 33.3981 4.99395 33.182 4.74798C32.9648 4.50107 32.6823 4.32048 32.367 4.22698C28.146 2.99978 23.6629 2.99978 19.442 4.22698C19.125 4.31998 18.842 4.49998 18.624 4.74698C18.407 4.99298 18.264 5.29498 18.214 5.61898L18.121 6.18198C13.7032 7.75194 9.87583 10.6439 7.15899 14.465C4.45538 18.2695 3.00192 22.8207 2.99999 27.488V30.514C1.65999 30.9 0.912988 31.324 0.912988 31.771V34.192C0.891335 34.334 0.922271 34.4791 0.999988 34.6C1.6684 34.1059 2.4344 33.7599 3.24699 33.585C5.31899 33.085 7.42599 32.735 9.54999 32.539C10.1446 32.4725 10.7465 32.5323 11.3163 32.7144C11.8862 32.8965 12.4112 33.197 12.857 33.596C14.5038 35.0854 16.6455 35.9094 18.866 35.908H32.83C35.0505 35.9093 37.192 35.0844 38.838 33.594C39.283 33.1929 39.8077 32.8903 40.3778 32.7061C40.9478 32.5218 41.5504 32.4601 42.146 32.525C44.269 32.721 46.376 33.069 48.448 33.567C49.218 33.7128 49.9458 34.0288 50.578 34.492C50.613 34.527 50.656 34.558 50.686 34.591C50.7646 34.4726 50.7986 34.3301 50.782 34.189Z" fill="#FFF100"/>
<path d="M12.89 29.094C12.8712 28.5365 12.8612 27.9788 12.86 27.421C12.867 19.005 14.852 11.457 18.122 6.18597C13.7043 7.75566 9.87699 10.6473 7.16 14.468C4.45662 18.2715 3.00285 22.8216 3 27.488V30.514C6.24767 29.7464 9.55756 29.2712 12.89 29.094Z" fill="url(#paint0_linear_2_246)"/>
<path d="M48.697 27.488C48.7015 22.2261 46.8555 17.1302 43.482 13.092C44.9458 17.7249 45.6753 22.5584 45.644 27.417C45.644 28.237 45.622 29.047 45.584 29.852C46.6198 30.0113 47.646 30.2276 48.658 30.5L48.697 27.488Z" fill="url(#paint1_linear_2_246)"/>
<path d="M48.448 33.576C46.375 33.076 44.268 32.726 42.145 32.53C41.5499 32.4642 40.9476 32.5247 40.3776 32.7077C39.8075 32.8908 39.2825 33.1921 38.837 33.592C37.1906 35.0824 35.0487 35.9068 32.828 35.905H18.87C16.6505 35.9059 14.51 35.0819 12.864 33.593C12.4193 33.1913 11.8947 32.8882 11.3246 32.7037C10.7544 32.5191 10.1517 32.4572 9.55599 32.522C7.43199 32.718 5.32599 33.068 3.25299 33.567C2.44149 33.7443 1.67629 34.0901 1.00699 34.582C2.06699 36.19 12.789 37.877 25.853 37.877C38.918 37.877 49.635 36.184 50.697 34.583C50.66 34.551 50.619 34.52 50.588 34.485C49.9481 34.032 49.2183 33.722 48.448 33.576Z" fill="url(#paint2_radial_2_246)"/>
<path d="M25.846 10.414L20.5 19.436L25.846 22.726V10.414Z" fill="#0A0A0A"/>
<path d="M25.848 10.417V22.723L31.193 19.439L25.848 10.417ZM25.848 24.51V28.801C25.948 28.659 31.193 21.221 31.193 21.218L25.848 24.51Z" fill="#4B4D4D"/>
<path d="M25.848 24.512L20.502 21.224L25.848 28.804V24.51V24.512Z" fill="#0A0A0A"/>
<defs>
<linearGradient id="paint0_linear_2_246" x1="10.561" y1="30.514" x2="10.561" y2="6.18597" gradientUnits="userSpaceOnUse">
<stop stop-color="#EDCF00"/>
<stop offset="0.33" stop-color="#F0D500"/>
<stop offset="0.77" stop-color="#F9E500"/>
<stop offset="1" stop-color="#FFF100"/>
</linearGradient>
<linearGradient id="paint1_linear_2_246" x1="46.089" y1="30.692" x2="46.089" y2="13.092" gradientUnits="userSpaceOnUse">
<stop stop-color="#EDCF00"/>
<stop offset="0.59" stop-color="#F7E100"/>
<stop offset="1" stop-color="#FFF100"/>
</linearGradient>
<radialGradient id="paint2_radial_2_246" cx="0" cy="0" r="1" gradientUnits="userSpaceOnUse" gradientTransform="translate(3.70099 47.135) scale(18.5398 18.4136)">
<stop stop-color="#FFF100"/>
<stop offset="0.23" stop-color="#F9E500"/>
<stop offset="0.67" stop-color="#F0D500"/>
<stop offset="1" stop-color="#EDCF00"/>
</radialGradient>
</defs>
</svg>
