<svg width="413" height="416" viewBox="0 0 413 416" fill="none" xmlns="http://www.w3.org/2000/svg">
<g clip-path="url(#clip0_27_378)">
<path d="M333.8 115.1C342.2 126.9 349 139.7 354 153.3L371.8 147.4C366.1 131.9 358.4 117.2 348.7 103.8L333.8 115.1Z" fill="#31BBEA"/>
<path d="M211.2 30.3C206.4 30.1 201.6 30.1 196.8 30.3L198.2 49C205.4 48.7 212.6 48.9 219.8 49.6C227 50.3 234.2 51.4 241.2 53L246 34.9C238 33.1 229.8 31.7 221.6 30.9C218.1 30.6 214.6 30.4 211.2 30.3Z" fill="#31BBEA"/>
<path d="M35.7 290.4C28.2 275 22.8 258.9 19.7 242.1L0 245.2C3.5 264.1 9.5 282.4 18.1 299.7L35.7 290.4Z" fill="#31BBEA"/>
<path d="M25.5 101.4L42.9 111C51.6 96.4 62.2 83 74.6 71.2L61.2 56.5C47.3 69.8 35.3 84.8 25.5 101.4Z" fill="#31BBEA"/>
<path d="M0.899902 165.4L20.4999 168.9C23.9999 152.2 29.5999 136.1 37.4999 120.9L19.9999 111.3C11.0999 128.4 4.6999 146.5 0.899902 165.4Z" fill="#31BBEA"/>
<path d="M128.4 13.5L136.2 31.8C152.1 25.6 168.6 21.6 185.6 19.8L184.2 0C165.1 1.9 146.3 6.4 128.4 13.5Z" fill="#31BBEA"/>
<path d="M69.7 48.9L83 63.6C96 52.5 110.3 43.4 125.8 36.2L118 17.9C100.5 26 84.3 36.4 69.7 48.9Z" fill="#31BBEA"/>
<path d="M364.5 341.4L349 329.1C338 342.1 325.3 353.5 311.2 363.2L321.9 380C337.8 369.1 352.1 356.2 364.5 341.4Z" fill="#31BBEA"/>
<path d="M122.3 376.9C107 369.5 92.7999 360 79.9999 348.6L66.3999 363.1C80.7999 375.9 96.7999 386.6 114.1 395L122.3 376.9Z" fill="#31BBEA"/>
<path d="M412.5 226.7C415 199.6 412.4 172.8 404.6 147.1L385.7 153.4C392.6 176.5 395 200.5 392.8 224.9C391.5 238.7 388.8 252.1 384.6 265.1L403.4 271.8C407.9 257.2 411 242.1 412.5 226.7Z" fill="#31BBEA"/>
<path d="M296.4 359.2L286.3 343.4C273.8 350.8 260.5 356.5 246.6 360.3L251 378.5C266.9 374.2 282.2 367.7 296.4 359.2Z" fill="#31BBEA"/>
<path d="M49.9 227.3C48.5 215.6 48.3 203.8 49.4 192C49.7 189.3 50 186.7 50.4 184.1L32 180.8C31.5 183.9 31.1 187.1 30.8 190.3C29.6 203.7 29.7 217.1 31.4 230.2L49.9 227.3Z" fill="#31BBEA"/>
<path d="M258.6 26.6C275 31.4 290.5 38.4 305 47.5L316 31C299.7 20.7 282.1 12.8 263.6 7.39999L258.6 26.6Z" fill="#31BBEA"/>
<path d="M177.6 413.9L179.4 394.1C163.2 391.9 147.5 387.7 132.6 381.5L124.4 399.6C141.4 406.7 159.2 411.5 177.6 413.9Z" fill="#31BBEA"/>
<path d="M80.2 333.3L93 319.6C82.8 309.3 74.0001 297.8 66.8001 285.2L50.3 294C58.4 308.4 68.5 321.6 80.2 333.3Z" fill="#31BBEA"/>
<path d="M325.4 37.3L314.3 53.9C328.2 63.8 340.6 75.5 351.4 88.7L367.2 76.6C355.1 61.6 341.1 48.4 325.4 37.3Z" fill="#31BBEA"/>
<path d="M344.5 313.2C354.4 299.9 362.5 285.4 368.4 270L350.7 263.7C345.4 277.2 338.4 289.8 329.7 301.5L344.5 313.2Z" fill="#31BBEA"/>
<path d="M359.2 162.2L341.4 168.1C346.3 185.1 348 202.7 346.3 220.6C345.4 230.4 343.4 240.2 340.5 249.5L358.2 255.8C361.6 244.9 363.9 233.7 364.9 222.3C366.9 201.8 364.9 181.6 359.2 162.2Z" fill="#80CCEB"/>
<path d="M182.1 366.4L183.8 347.7C172.8 346.1 162 343.1 151.8 339L144.1 356.1C156.2 361.1 169 364.5 182.1 366.4Z" fill="#80CCEB"/>
<path d="M310.8 167.6L327.6 162C323.6 151.3 318.2 141.3 311.7 131.9L297.7 142.6C303 150.4 307.5 158.8 310.8 167.6Z" fill="#80CCEB"/>
<path d="M209.4 76.8C206.3 76.7 203.2 76.7 200.2 76.8L201.5 94.4C206.2 94.3 211 94.4 215.6 94.9C220.3 95.3 224.9 96.1 229.6 97L234.1 79.9C228.6 78.7 223 77.8 217.3 77.3C214.6 77.1 212 76.9 209.4 76.8Z" fill="#80CCEB"/>
<path d="M67.2 124.5L83.6 133.6C89.8 123.4 97.2 114.1 105.7 105.8L93.2 91.9C83.1 101.6 74.4 112.5 67.2 124.5Z" fill="#80CCEB"/>
<path d="M246.7 71.6C258.1 75.1 268.9 80 279.1 86.2L289.5 70.6C277.6 63.3 264.9 57.5 251.5 53.5L246.7 71.6Z" fill="#80CCEB"/>
<path d="M314.4 116.9L329.3 105.5C320.5 94.7 310.3 85.1 298.9 76.9L288.5 92.5C298.1 99.6 306.8 107.7 314.4 116.9Z" fill="#80CCEB"/>
<path d="M294.2 273.2L308 284.2C314.7 275 320.3 265 324.5 254.4L307.9 248.5C304.3 257.3 299.7 265.5 294.2 273.2Z" fill="#80CCEB"/>
<path d="M111.9 314.7L99.0999 328.4C109.6 337.7 121.3 345.4 133.8 351.6L141.5 334.5C130.8 329.1 120.9 322.5 111.9 314.7Z" fill="#80CCEB"/>
<path d="M94.9 220.2C94 212.3 94 204.2 94.7 196.2C94.8 194.8 95 193.4 95.2 192L77.8 188.9C77.5 190.8 77.3 192.7 77.2 194.6C76.3 204.1 76.4 213.6 77.5 223L94.9 220.2Z" fill="#80CCEB"/>
<path d="M65.6999 234.9L47.2 237.8C49.8 251.5 54.1999 264.8 60.2999 277.4L76.9 268.6C71.7 257.9 67.9999 246.6 65.6999 234.9Z" fill="#80CCEB"/>
<path d="M286.1 323.9L296.2 339.7C307.7 331.7 318.1 322.4 327.2 311.7L312.5 300C304.8 309.1 295.9 317.1 286.1 323.9Z" fill="#80CCEB"/>
<path d="M78.1 143.5L61.7001 134.4C55.3001 146.9 50.7 160 47.8 173.7L66.3001 177C68.8001 165.4 72.8 154.1 78.1 143.5Z" fill="#80CCEB"/>
<path d="M235.9 316.2L240.1 333.4C251.1 330.3 261.5 325.8 271.4 320L261.9 305.1C253.6 309.8 244.9 313.5 235.9 316.2Z" fill="#80CCEB"/>
<path d="M107.1 264L91.5 272.2C97.2 282.1 104.1 291.1 112.1 299.3L124.2 286.4C117.6 279.7 111.9 272.2 107.1 264Z" fill="#80CCEB"/>
<path d="M199.8 349.2C198.2 349.1 196.7 349 195.1 348.9L193.4 367.6C208.2 368.7 223 367.7 237.4 364.8L233 346.6C222 348.8 210.9 349.7 199.8 349.2Z" fill="#80CCEB"/>
<path d="M101.6 84.3L114.2 98.2C123.3 90.6 133.4 84.2 144.1 79L136.7 61.8C124 67.8 112.3 75.3 101.6 84.3Z" fill="#80CCEB"/>
<path d="M147.1 57.4L154.5 74.6C165.6 70.4 177.2 67.6 189 66.3L187.6 47.6C173.8 49.1 160.2 52.3 147.1 57.4Z" fill="#80CCEB"/>
<path d="M194.5 415.4C209.8 415.9 230.4 414.7 247.3 411.1L243.2 391.9C228.1 395.1 212.9 396.3 197.4 395.7C194.9 395.6 193.2 395.4 190.7 395.2L189 415.2C191.7 415.5 189.9 415.3 194.5 415.4Z" fill="#00BAFF"/>
<path d="M333.8 115.1C342.2 126.9 349 139.7 354 153.3L371.8 147.4C366.1 131.9 358.4 117.2 348.7 103.8L333.8 115.1Z" fill="#FFBB00"/>
<path d="M211.2 30.3C206.4 30.1 201.6 30.1 196.8 30.3L198.2 49C205.4 48.7 212.6 48.9 219.8 49.6C227 50.3 234.2 51.4 241.2 53L246 34.9C238 33.1 229.8 31.7 221.6 30.9C218.1 30.6 214.6 30.4 211.2 30.3Z" fill="#FFBB00"/>
<path d="M35.7 290.4C28.2 275 22.8 258.9 19.7 242.1L0 245.2C3.5 264.1 9.5 282.4 18.1 299.7L35.7 290.4Z" fill="#FFBB00"/>
<path d="M25.5 101.4L42.9 111C51.6 96.4 62.2 83 74.6 71.2L61.2 56.5C47.3 69.8 35.3 84.8 25.5 101.4Z" fill="#FFBB00"/>
<path d="M0.899902 165.4L20.4999 168.9C23.9999 152.2 29.5999 136.1 37.4999 120.9L19.9999 111.3C11.0999 128.4 4.6999 146.5 0.899902 165.4Z" fill="#FFBB00"/>
<path d="M128.4 13.5L136.2 31.8C152.1 25.6 168.6 21.6 185.6 19.8L184.2 0C165.1 1.9 146.3 6.4 128.4 13.5Z" fill="#FFBB00"/>
<path d="M69.7 48.9L83 63.6C96 52.5 110.3 43.4 125.8 36.2L118 17.9C100.5 26 84.3 36.4 69.7 48.9Z" fill="#FFBB00"/>
<path d="M364.5 341.4L349 329.1C338 342.1 325.3 353.5 311.2 363.2L321.9 380C337.8 369.1 352.1 356.2 364.5 341.4Z" fill="#FFBB00"/>
<path d="M122.3 376.9C107 369.5 92.7999 360 79.9999 348.6L66.3999 363.1C80.7999 375.9 96.7999 386.6 114.1 395L122.3 376.9Z" fill="#FFBB00"/>
<path d="M412.5 226.7C415 199.6 412.4 172.8 404.6 147.1L385.7 153.4C392.6 176.5 395 200.5 392.8 224.9C391.5 238.7 388.8 252.1 384.6 265.1L403.4 271.8C407.9 257.2 411 242.1 412.5 226.7Z" fill="#FFBB00"/>
<path d="M296.4 359.2L286.3 343.4C273.8 350.8 260.5 356.5 246.6 360.3L251 378.5C266.9 374.2 282.2 367.7 296.4 359.2Z" fill="#FFBB00"/>
<path d="M49.9 227.3C48.5 215.6 48.3 203.8 49.4 192C49.7 189.3 50 186.7 50.4 184.1L32 180.8C31.5 183.9 31.1 187.1 30.8 190.3C29.6 203.7 29.7 217.1 31.4 230.2L49.9 227.3Z" fill="#FFBB00"/>
<path d="M258.6 26.6C275 31.4 290.5 38.4 305 47.5L316 31C299.7 20.7 282.1 12.8 263.6 7.39999L258.6 26.6Z" fill="#FFBB00"/>
<path d="M177.6 413.9L179.4 394.1C163.2 391.9 147.5 387.7 132.6 381.5L124.4 399.6C141.4 406.7 159.2 411.5 177.6 413.9Z" fill="#FFBB00"/>
<path d="M80.2 333.3L93 319.6C82.8 309.3 74.0001 297.8 66.8001 285.2L50.3 294C58.4 308.4 68.5 321.6 80.2 333.3Z" fill="#FFBB00"/>
<path d="M325.4 37.3L314.3 53.9C328.2 63.8 340.6 75.5 351.4 88.7L367.2 76.6C355.1 61.6 341.1 48.4 325.4 37.3Z" fill="#FFBB00"/>
<path d="M344.5 313.2C354.4 299.9 362.5 285.4 368.4 270L350.7 263.7C345.4 277.2 338.4 289.8 329.7 301.5L344.5 313.2Z" fill="#FFBB00"/>
<path d="M359.2 162.2L341.4 168.1C346.3 185.1 348 202.7 346.3 220.6C345.4 230.4 343.4 240.2 340.5 249.5L358.2 255.8C361.6 244.9 363.9 233.7 364.9 222.3C366.9 201.8 364.9 181.6 359.2 162.2Z" fill="#FFE395"/>
<path d="M182.1 366.4L183.8 347.7C172.8 346.1 162 343.1 151.8 339L144.1 356.1C156.2 361.1 169 364.5 182.1 366.4Z" fill="#FFE395"/>
<path d="M310.8 167.6L327.6 162C323.6 151.3 318.2 141.3 311.7 131.9L297.7 142.6C303 150.4 307.5 158.8 310.8 167.6Z" fill="#FFE395"/>
<path d="M209.4 76.8C206.3 76.7 203.2 76.7 200.2 76.8L201.5 94.4C206.2 94.3 211 94.4 215.6 94.9C220.3 95.3 224.9 96.1 229.6 97L234.1 79.9C228.6 78.7 223 77.8 217.3 77.3C214.6 77.1 212 76.9 209.4 76.8Z" fill="#FFE395"/>
<path d="M67.2 124.5L83.6 133.6C89.8 123.4 97.2 114.1 105.7 105.8L93.2 91.9C83.1 101.6 74.4 112.5 67.2 124.5Z" fill="#FFE395"/>
<path d="M246.7 71.6C258.1 75.1 268.9 80 279.1 86.2L289.5 70.6C277.6 63.3 264.9 57.5 251.5 53.5L246.7 71.6Z" fill="#FFE395"/>
<path d="M314.4 116.9L329.3 105.5C320.5 94.7 310.3 85.1 298.9 76.9L288.5 92.5C298.1 99.6 306.8 107.7 314.4 116.9Z" fill="#FFE395"/>
<path d="M294.2 273.2L308 284.2C314.7 275 320.3 265 324.5 254.4L307.9 248.5C304.3 257.3 299.7 265.5 294.2 273.2Z" fill="#FFE395"/>
<path d="M111.9 314.7L99.0999 328.4C109.6 337.7 121.3 345.4 133.8 351.6L141.5 334.5C130.8 329.1 120.9 322.5 111.9 314.7Z" fill="#FFE395"/>
<path d="M94.9 220.2C94 212.3 94 204.2 94.7 196.2C94.8 194.8 95 193.4 95.2 192L77.8 188.9C77.5 190.8 77.3 192.7 77.2 194.6C76.3 204.1 76.4 213.6 77.5 223L94.9 220.2Z" fill="#FFE395"/>
<path d="M65.6999 234.9L47.2 237.8C49.8 251.5 54.1999 264.8 60.2999 277.4L76.9 268.6C71.7 257.9 67.9999 246.6 65.6999 234.9Z" fill="#FFE395"/>
<path d="M286.1 323.9L296.2 339.7C307.7 331.7 318.1 322.4 327.2 311.7L312.5 300C304.8 309.1 295.9 317.1 286.1 323.9Z" fill="#FFE395"/>
<path d="M78.1 143.5L61.7001 134.4C55.3001 146.9 50.7 160 47.8 173.7L66.3001 177C68.8001 165.4 72.8 154.1 78.1 143.5Z" fill="#FFE395"/>
<path d="M235.9 316.2L240.1 333.4C251.1 330.3 261.5 325.8 271.4 320L261.9 305.1C253.6 309.8 244.9 313.5 235.9 316.2Z" fill="#FFE395"/>
<path d="M107.1 264L91.5 272.2C97.2 282.1 104.1 291.1 112.1 299.3L124.2 286.4C117.6 279.7 111.9 272.2 107.1 264Z" fill="#FFE395"/>
<path d="M199.8 349.2C198.2 349.1 196.7 349 195.1 348.9L193.4 367.6C208.2 368.7 223 367.7 237.4 364.8L233 346.6C222 348.8 210.9 349.7 199.8 349.2Z" fill="#FFE395"/>
<path d="M101.6 84.3L114.2 98.2C123.3 90.6 133.4 84.2 144.1 79L136.7 61.8C124 67.8 112.3 75.3 101.6 84.3Z" fill="#FFE395"/>
<path d="M147.1 57.4L154.5 74.6C165.6 70.4 177.2 67.6 189 66.3L187.6 47.6C173.8 49.1 160.2 52.3 147.1 57.4Z" fill="#FFE395"/>
<path d="M194.5 415.4C209.8 415.9 230.4 414.7 247.3 411.1L243.2 391.9C228.1 395.1 212.9 396.3 197.4 395.7C194.9 395.6 193.2 395.4 190.7 395.2L189 415.2C191.7 415.5 189.9 415.3 194.5 415.4Z" fill="#FFBB00"/>
</g>
<defs>
<clipPath id="clip0_27_378">
<rect width="413" height="416" fill="white"/>
</clipPath>
</defs>
</svg>
